<svg width="20" height="20" viewBox="0 0 20 20" fill="none" xmlns="http://www.w3.org/2000/svg">
<path d="M8.33325 9.99967C8.33325 10.4417 8.50885 10.8656 8.82141 11.1782C9.13397 11.4907 9.55789 11.6663 9.99992 11.6663C10.4419 11.6663 10.8659 11.4907 11.1784 11.1782C11.491 10.8656 11.6666 10.4417 11.6666 9.99967C11.6666 9.55765 11.491 9.13372 11.1784 8.82116C10.8659 8.5086 10.4419 8.33301 9.99992 8.33301C9.55789 8.33301 9.13397 8.5086 8.82141 8.82116C8.50885 9.13372 8.33325 9.55765 8.33325 9.99967ZM8.33325 4.99967C8.33325 5.4417 8.50885 5.86563 8.82141 6.17819C9.13397 6.49075 9.55789 6.66634 9.99992 6.66634C10.4419 6.66634 10.8659 6.49075 11.1784 6.17819C11.491 5.86563 11.6666 5.4417 11.6666 4.99967C11.6666 4.55765 11.491 4.13372 11.1784 3.82116C10.8659 3.5086 10.4419 3.33301 9.99992 3.33301C9.55789 3.33301 9.13397 3.5086 8.82141 3.82116C8.50885 4.13372 8.33325 4.55765 8.33325 4.99967ZM8.33325 14.9997C8.33325 15.4417 8.50885 15.8656 8.82141 16.1782C9.13397 16.4907 9.55789 16.6663 9.99992 16.6663C10.4419 16.6663 10.8659 16.4907 11.1784 16.1782C11.491 15.8656 11.6666 15.4417 11.6666 14.9997C11.6666 14.5576 11.491 14.1337 11.1784 13.8212C10.8659 13.5086 10.4419 13.333 9.99992 13.333C9.55789 13.333 9.13397 13.5086 8.82141 13.8212C8.50885 14.1337 8.33325 14.5576 8.33325 14.9997Z" fill="black"/>
</svg>
