<svg width="20" height="20" viewBox="0 0 20 20" fill="none" xmlns="http://www.w3.org/2000/svg">
<g clip-path="url(#clip0_73_1440)">
<path d="M10.7144 14.8572L6.42871 15.6286L7.143 11.2858L15.3287 3.12862C15.4615 2.99473 15.6195 2.88845 15.7936 2.81592C15.9677 2.74339 16.1544 2.70605 16.343 2.70605C16.5316 2.70605 16.7183 2.74339 16.8924 2.81592C17.0665 2.88845 17.2245 2.99473 17.3573 3.12862L18.8716 4.64291C19.0055 4.77571 19.1117 4.93372 19.1843 5.1078C19.2568 5.28188 19.2941 5.46861 19.2941 5.6572C19.2941 5.84578 19.2568 6.03251 19.1843 6.20659C19.1117 6.38067 19.0055 6.53868 18.8716 6.67148L10.7144 14.8572Z" stroke="#444444" stroke-linecap="round" stroke-linejoin="round"/>
<path d="M17.1429 15.5717V19.8574C17.1429 20.2363 16.9924 20.5997 16.7245 20.8676C16.4566 21.1355 16.0932 21.286 15.7144 21.286H2.14293C1.76405 21.286 1.40068 21.1355 1.13277 20.8676C0.864865 20.5997 0.714355 20.2363 0.714355 19.8574V6.28599C0.714355 5.90711 0.864865 5.54375 1.13277 5.27584C1.40068 5.00793 1.76405 4.85742 2.14293 4.85742H6.42864" stroke="#444444" stroke-linecap="round" stroke-linejoin="round"/>
</g>
<defs>
<clipPath id="clip0_73_1440">
<rect width="20" height="20" fill="white"/>
</clipPath>
</defs>
</svg>
