<svg xmlns="http://www.w3.org/2000/svg" width="12" height="12" viewBox="0 0 12 12" fill="none">
  <path fill-rule="evenodd" clip-rule="evenodd" d="M0 6C0 2.68621 2.68621 0 6 0C9.31379 0 12 2.68621 12 6C12 9.31379 9.31379 12 6 12C2.68621 12 0 9.31379 0 6ZM6 0.837209C3.14858 0.837209 0.837209 3.14858 0.837209 6C0.837209 8.85142 3.14858 11.1628 6 11.1628C8.85142 11.1628 11.1628 8.85142 11.1628 6C11.1628 3.14858 8.85142 0.837209 6 0.837209ZM6.28717 3.17807C6.45823 3.33359 6.47084 3.59833 6.31532 3.7694L6.30974 3.77554C6.15423 3.9466 5.88948 3.95921 5.71841 3.80369C5.54735 3.64818 5.53474 3.38343 5.69026 3.21237L5.69584 3.20623C5.85136 3.03516 6.1161 3.02256 6.28717 3.17807ZM6 5.30233C6.23119 5.30233 6.4186 5.48974 6.4186 5.72093V8.51163C6.4186 8.74282 6.23119 8.93023 6 8.93023C5.76881 8.93023 5.5814 8.74282 5.5814 8.51163V5.72093C5.5814 5.48974 5.76881 5.30233 6 5.30233Z" fill="#0059E3"/>
</svg>