<svg xmlns="http://www.w3.org/2000/svg" width="209" height="244" viewBox="0 0 209 244" fill="none">
  <g clip-path="url(#clip0_720_12088)">
    <path d="M161.358 199.947L148.493 194.797L139.665 191.388C131.48 186.838 124.606 179.407 118.288 171.788L102.445 166.865L82.9155 173.252L61.4951 185.916C69.3131 196.219 114.974 213.984 127.268 217.805C129.187 218.401 133.789 219.774 136.464 220.493C134.205 223.811 133.333 228.062 134.417 232.261C136.402 239.946 144.189 244.552 151.809 242.551C151.999 242.5 152.187 242.447 152.373 242.389C156.261 241.536 159.639 238.781 161.154 234.792L163.071 229.744C164.338 226.411 165.455 223.022 166.418 219.588L168.077 213.676C169.658 208.039 166.756 202.108 161.355 199.947H161.358Z" fill="#DD1972"/>
    <path d="M15.5875 140.293L22.6806 142.128L31.2698 135.368L30.4475 118.876L25.4172 112.751L14.7341 112.038L6.61108 115.503L8.46181 123.14L10.9614 134.64L15.5875 140.293Z" fill="#DD1972"/>
    <path d="M22.718 142.291L22.6406 142.272L15.4979 140.425L10.8176 134.706L8.31024 123.171L6.43164 115.418L14.7065 111.888L14.7452 111.891L25.498 112.61L25.5398 112.662L30.601 118.824L30.6041 118.871L31.4296 135.437L31.3692 135.485L22.7195 142.294L22.718 142.291ZM15.6775 140.164L22.6437 141.965L31.1105 135.3L30.2959 118.931L25.3384 112.895L14.7622 112.188L6.79094 115.587L8.61224 123.106L11.1057 134.575L15.6775 140.162V140.164Z" fill="white"/>
    <path d="M14.4202 142.049C14.4202 142.049 23.0202 145.197 27.6571 141.052C32.294 136.908 32.3962 132.897 32.3962 132.897" fill="#DD1972"/>
    <path d="M21.0501 143.329C17.5469 143.329 14.4169 142.207 14.3643 142.188L14.4742 141.91C14.5594 141.941 23.0386 144.977 27.5501 140.944C32.0863 136.89 32.2396 132.936 32.2396 132.896L32.5493 132.903C32.5493 132.943 32.3914 137.022 27.7607 141.161C25.896 142.827 23.3902 143.329 21.0501 143.329Z" fill="white"/>
    <path d="M8.78887 134.376C8.78887 134.376 1.70347 133.532 1.20323 138.493C0.702993 143.455 5.32748 145.987 10.1626 146.435C14.9977 146.884 20.251 143.786 20.5979 140.357C20.9448 136.926 18.1834 133.826 15.611 133.649" fill="#DD1972"/>
    <path d="M11.1104 146.628C10.7882 146.628 10.4676 146.613 10.1486 146.584C5.61705 146.163 0.514014 143.787 1.04987 138.48C1.17532 137.237 1.71427 136.242 2.65435 135.52C4.90929 133.787 8.651 134.209 8.80897 134.229L8.77025 134.523C8.73308 134.518 4.99756 134.098 2.84639 135.752C1.97601 136.422 1.47422 137.349 1.35807 138.506C0.843892 143.597 5.78896 145.879 10.1796 146.286C14.9218 146.726 20.1038 143.726 20.4461 140.341C20.6149 138.671 20.0341 136.943 18.8524 135.602C17.9108 134.532 16.726 133.873 15.6017 133.796L15.6233 133.499C16.8298 133.582 18.0936 134.278 19.0878 135.408C20.3222 136.811 20.9293 138.619 20.7527 140.368C20.4197 143.67 15.7209 146.625 11.1104 146.625V146.628Z" fill="white"/>
    <path d="M6.01187 123.237C6.01187 123.237 0.74776 122.563 0.204158 127.937C-0.337895 133.311 3.5463 136.919 10.4861 137.564C17.4259 138.209 19.6871 134.616 20.0758 132.102C20.4645 129.588 19.1605 125.987 14.5871 124.034" fill="#DD1972"/>
    <path d="M12.0381 137.786C11.5409 137.786 11.019 137.763 10.4708 137.711C7.02642 137.391 4.24646 136.326 2.43136 134.63C0.603871 132.923 -0.220049 130.604 0.0509771 127.923C0.219788 126.243 0.862507 124.968 1.95745 124.134C3.69822 122.809 5.93767 123.078 6.03369 123.09L5.99342 123.384C5.97174 123.381 3.78495 123.121 2.1495 124.368C1.12424 125.149 0.523337 126.354 0.36227 127.951C-0.17049 133.238 3.62078 136.776 10.5048 137.415C16.7508 137.994 19.4673 135.039 19.9257 132.079C20.3315 129.463 18.8184 126.002 14.5269 124.168L14.6523 123.897C19.0925 125.794 20.6536 129.396 20.2308 132.122C19.7925 134.954 17.3967 137.785 12.0412 137.785L12.0381 137.786Z" fill="white"/>
    <path d="M12.8665 115.464C12.8665 115.464 22.2982 119.926 19.6375 125.985C16.9768 132.045 4.93549 131.358 3.13433 121.733C1.33471 112.106 8.78871 109.892 13.7229 109.362C18.6572 108.831 27.9263 113.711 27.9263 113.711" fill="#DD1972"/>
    <path d="M12.7768 130.037C12.4221 130.037 12.0613 130.018 11.6973 129.979C8.15693 129.602 4.00945 127.245 2.98265 121.758C2.33529 118.294 2.82933 115.48 4.45394 113.391C6.24581 111.086 9.35874 109.681 13.706 109.213C18.6309 108.682 27.6213 113.379 28.0007 113.58L27.852 113.84C27.7606 113.791 18.5705 108.99 13.7401 109.508C9.48109 109.966 6.4394 111.333 4.70173 113.569C3.13133 115.588 2.65587 118.327 3.28775 121.706C4.28358 127.031 8.30251 129.319 11.7314 129.683C15.2268 130.056 18.346 128.545 19.4951 125.927C22.0691 120.065 12.8914 115.64 12.7984 115.597L12.9347 115.331C12.958 115.343 15.3384 116.479 17.3563 118.346C20.0558 120.843 20.8952 123.505 19.7801 126.045C18.6975 128.511 15.9594 130.039 12.7768 130.039V130.037Z" fill="white"/>
    <path d="M19.503 43.6709H15.354V119.501H19.503V43.6709Z" fill="#5C77FF"/>
    <path d="M25.374 123.922C25.374 123.922 16.5308 124.708 14.9263 120.169C13.3219 115.63 15.5334 112.868 20.9493 111.578C27.5655 110.001 33.4057 110.756 33.0789 120.371" fill="#DD1972"/>
    <path d="M23.8176 124.128C21.1678 124.128 15.9997 123.671 14.7777 120.218C14.0529 118.167 14.0901 116.418 14.8877 115.019C15.8278 113.368 17.8535 112.163 20.9091 111.435C25.3602 110.374 28.5056 110.62 30.5267 112.188C32.4549 113.684 33.3655 116.439 33.2323 120.377L32.9226 120.366C33.0527 116.527 32.1807 113.852 30.3316 112.418C28.391 110.913 25.3338 110.686 20.9835 111.722C18.0146 112.429 16.0554 113.585 15.1587 115.16C14.4045 116.484 14.3751 118.152 15.0705 120.121C16.6161 124.497 25.2688 123.781 25.3571 123.773L25.3849 124.069C25.2936 124.076 24.6927 124.127 23.8161 124.127L23.8176 124.128Z" fill="white"/>
    <path d="M200.608 101.594L154.88 87.5283L150.646 113.06L196.305 127.327C201.534 128.962 206.74 124.498 207.922 117.372C209.101 110.262 205.825 103.198 200.606 101.592L200.608 101.594Z" fill="#4C6BD8"/>
    <path d="M208.363 147.047L204.645 162.755C201.744 175.009 189.581 183.116 176.599 181.447L142.035 177.002C140.025 176.743 138.611 174.994 138.682 172.859C139.369 152.52 144.434 132.209 153.5 113.42L186.94 117.588C201.735 119.432 211.667 133.09 208.363 147.048V147.047Z" fill="#4967BA"/>
    <path d="M98.8953 58.7383C59.3796 58.7383 27.3474 89.4719 27.3474 127.382C27.3474 152.141 41.0102 173.838 61.4983 185.914C55.6162 193.664 50.5767 202.726 46.9604 209.152L46.0993 210.485C43.4897 206.26 38.6887 203.426 33.1969 203.426C24.9206 203.426 18.21 209.864 18.21 217.805C18.21 218.002 18.2146 218.2 18.2239 218.396C18.0535 222.405 19.9368 226.396 23.5608 228.882L28.1435 232.026C31.1697 234.102 34.2919 236.047 37.5008 237.852L43.0236 240.96C48.2908 243.925 55.0417 242.587 58.6533 237.862L67.2564 226.605L74.0646 219.714C80.8232 212.873 89.1073 207.175 98.4678 202.931L113.13 196.282C117.181 194.445 121.294 192.74 125.456 191.144C151.82 181.025 170.445 156.293 170.445 127.385C170.445 89.4734 138.411 58.7413 98.8968 58.7413L98.8953 58.7383ZM90.9054 156.131C68.864 156.131 50.9964 138.988 50.9964 117.842C50.9964 96.6947 68.864 79.5523 90.9054 79.5523C112.947 79.5523 130.814 96.6947 130.814 117.842C130.814 138.988 112.947 156.131 90.9054 156.131Z" fill="url(#paint0_linear_720_12088)"/>
    <path d="M78.302 111.881C81.1844 111.881 83.5211 109.639 83.5211 106.874C83.5211 104.108 81.1844 101.866 78.302 101.866C75.4195 101.866 73.0828 104.108 73.0828 106.874C73.0828 109.639 75.4195 111.881 78.302 111.881Z" fill="#FF1A7A"/>
    <path d="M98.9401 113.022C101.823 113.022 104.159 110.78 104.159 108.014C104.159 105.249 101.823 103.007 98.9401 103.007C96.0577 103.007 93.7209 105.249 93.7209 108.014C93.7209 110.78 96.0577 113.022 98.9401 113.022Z" fill="#FF1A7A"/>
    <path d="M95.124 122.022C93.7612 122.022 92.0885 121.278 90.1341 119.795C88.1982 118.328 85.9556 118.187 83.8184 119.398C80.5893 121.227 78.531 121.676 77.1418 120.851C76.0051 120.177 75.5343 118.752 75.7015 116.495C75.7325 116.086 76.0995 115.777 76.5285 115.807C76.9544 115.836 77.2766 116.191 77.2456 116.6C77.1263 118.208 77.371 119.24 77.9549 119.587C78.5078 119.915 79.8366 119.927 83.0285 118.119C85.7171 116.596 88.655 116.781 91.0927 118.628C93.1448 120.184 94.7942 120.82 95.7404 120.42C96.713 120.009 97.0274 118.429 97.1219 117.177C97.1529 116.768 97.523 116.459 97.9489 116.489C98.3748 116.518 98.6969 116.874 98.666 117.282C98.4863 119.697 97.712 121.209 96.3646 121.778C95.9836 121.939 95.5701 122.019 95.1209 122.019L95.124 122.022Z" fill="#FF1A7A"/>
    <path d="M96.3351 39.1312L121.703 43.8681C130.518 45.5145 135.956 54.0671 133.449 62.3404L132.327 66.0373L149.106 68.3151C150.689 68.5395 152.05 70.0506 151.772 71.6687C151.493 73.2868 149.676 74.3982 148.095 74.1724L80.8138 64.7119C80.6899 64.694 80.5691 64.6688 80.4514 64.6361C79.073 64.2513 78.1965 62.8664 78.4551 61.3761C78.5294 60.9497 79.2713 52.0597 79.2713 52.0597C79.6399 43.6482 87.7257 37.5235 96.3382 39.1312H96.3351Z" fill="#5C77FF"/>
    <path d="M154.113 170.566L152.735 171.46C152.109 171.866 151.451 172.217 150.767 172.512C151.848 174.691 153.035 176.685 154.298 178.425L169.19 180.34C166.42 177.659 163.908 174.306 161.851 170.434C159.243 171.27 156.44 171.058 154.113 170.567V170.566Z" fill="#5C77FF"/>
    <path d="M200.267 135.024C199.475 116.663 187.341 110.109 167.854 106.899L167.816 130.661C175.083 130.282 179.23 131.508 177.834 139.728C176.881 145.336 172.12 145.507 170.491 145.377C167.737 145.159 165.473 143.013 164.956 140.281C163.433 132.229 162.668 127.831 156.909 129.315C151.395 130.736 152.119 137.985 152.368 139.679L152.105 139.492C152.105 139.492 145.725 137.548 140.615 142.581C135.504 147.614 138.694 153.554 138.694 153.554L138.82 153.422C138.66 153.695 138.515 153.987 138.386 154.294C136.394 159.031 139.14 162.631 139.509 163.081C138.113 165.576 138.707 168.319 140.333 170.7C141.85 172.922 144.412 173.371 146.667 173.236C148.897 173.102 151.041 172.362 152.891 171.162L154.27 170.267C157.09 170.861 160.612 171.05 163.636 169.451C166.04 168.181 167.646 166.307 168.668 164.438C173.482 164.489 180.902 165.695 187.931 161.882C197.776 156.542 200.717 145.446 200.268 135.022L200.267 135.024Z" fill="url(#paint1_linear_720_12088)"/>
    <path d="M171.393 145.425C170.973 145.425 170.615 145.396 170.352 145.376C167.55 145.153 165.216 143.007 164.677 140.157L164.628 139.891C163.633 134.631 162.915 130.832 160.792 129.541C159.814 128.948 158.516 128.871 156.822 129.307C150.781 130.865 152.433 139.765 152.45 139.856C152.466 139.936 152.41 140.013 152.326 140.029C152.243 140.044 152.16 139.991 152.145 139.911C152.14 139.888 151.702 137.582 152.041 135.11C152.493 131.802 154.12 129.698 156.742 129.022C158.524 128.563 159.903 128.651 160.957 129.291C163.195 130.651 163.886 134.306 164.933 139.839L164.982 140.105C165.497 142.823 167.716 144.869 170.378 145.08C171.787 145.191 176.074 145.532 177.346 140.001C178.12 136.63 177.846 134.257 176.508 132.744C175.038 131.084 172.24 130.422 167.699 130.66C167.612 130.662 167.541 130.602 167.536 130.52C167.532 130.438 167.597 130.368 167.682 130.364C172.328 130.122 175.207 130.817 176.743 132.554C178.148 134.141 178.444 136.599 177.648 140.067C176.556 144.82 173.327 145.426 171.393 145.426V145.425Z" fill="white"/>
    <path d="M172.941 164.695C167.872 164.695 163.832 164.131 163.753 164.119C163.667 164.107 163.61 164.031 163.623 163.95C163.635 163.868 163.712 163.813 163.799 163.825C163.949 163.847 178.932 165.939 187.385 161.999C195.439 158.244 199.976 149.74 200.155 138.055C200.436 120.007 190.73 110.689 167.702 106.895C167.618 106.882 167.561 106.805 167.575 106.724C167.589 106.644 167.669 106.589 167.753 106.603C178.738 108.411 186.299 111.311 191.548 115.726C197.699 120.901 200.615 128.206 200.464 138.058C200.377 143.623 199.335 148.476 197.363 152.482C195.162 156.954 191.85 160.245 187.518 162.265C183.38 164.193 177.705 164.694 172.94 164.694L172.941 164.695Z" fill="white"/>
    <path d="M138.566 153.555C138.51 153.555 138.456 153.526 138.428 153.475C138.396 153.414 135.246 147.382 140.375 142.33C145.493 137.29 151.959 139.183 152.023 139.202C152.105 139.227 152.15 139.31 152.123 139.389C152.097 139.468 152.01 139.511 151.93 139.486C151.866 139.466 145.579 137.633 140.596 142.538C135.625 147.432 138.671 153.281 138.702 153.338C138.741 153.411 138.712 153.5 138.636 153.539C138.612 153.551 138.589 153.555 138.564 153.555H138.566Z" fill="white"/>
    <path d="M139.421 163.13C139.376 163.13 139.332 163.112 139.301 163.076C139.267 163.038 135.972 159.18 138.113 154.09C140.257 148.995 146.785 148.546 146.851 148.541C146.938 148.535 147.011 148.598 147.015 148.681C147.02 148.764 146.957 148.834 146.87 148.839C146.806 148.843 140.471 149.281 138.4 154.201C136.328 159.13 139.506 162.849 139.538 162.886C139.592 162.948 139.585 163.042 139.52 163.095C139.49 163.119 139.455 163.13 139.421 163.13Z" fill="white"/>
    <path d="M145.834 173.257C143.235 173.257 141.253 172.357 140.074 170.632C138.474 168.29 138.036 165.834 138.841 163.718C139.921 160.88 143.044 158.7 148.124 157.24C148.206 157.216 148.293 157.261 148.318 157.339C148.343 157.418 148.296 157.501 148.214 157.525C143.302 158.937 140.162 161.113 139.132 163.821C138.146 166.416 139.241 168.87 140.333 170.47C141.57 172.281 143.655 173.112 146.528 172.939C148.682 172.81 150.807 172.101 152.676 170.89L154.054 169.996C154.126 169.95 154.222 169.968 154.27 170.036C154.318 170.104 154.299 170.197 154.228 170.243L152.849 171.137C150.935 172.378 148.756 173.104 146.548 173.237C146.305 173.251 146.066 173.259 145.834 173.259V173.257Z" fill="white"/>
    <path d="M158.064 170.699C155.536 170.699 152.66 170.077 149.458 168.833L149.369 168.799C147.632 168.124 145.059 169.707 145.033 169.723C144.962 169.768 144.866 169.748 144.819 169.68C144.773 169.612 144.793 169.519 144.864 169.475C144.974 169.406 147.596 167.791 149.485 168.524L149.574 168.558C155.32 170.79 159.983 170.998 163.435 169.175C165.518 168.074 167.237 166.362 168.406 164.222C168.446 164.15 168.539 164.121 168.615 164.16C168.691 164.199 168.721 164.288 168.68 164.36C167.483 166.552 165.721 168.307 163.585 169.435C161.988 170.279 160.144 170.699 158.064 170.699Z" fill="white"/>
    <path d="M165.657 101.748C158.231 106.262 151.705 118.146 150.139 121.304C147.489 126.647 145.648 132.904 144.895 139.69C148.518 138.541 151.637 139.491 151.637 139.491L151.9 139.678C151.652 137.984 150.928 130.736 156.441 129.314C157.75 128.977 158.8 128.944 159.659 129.188C161.467 124.436 163.85 119.785 166.611 115.896C167.243 115.006 167.826 114.085 168.377 113.146L171.567 107.708L171.341 107.582C168.893 106.213 166.917 104.185 165.657 101.748Z" fill="#5C77FF"/>
    <path d="M15.354 25.0824V0.65918L49.1889 12.8715L83.0254 25.0824L49.1889 37.2947L15.354 49.5055V25.0824Z" fill="#5C77FF"/>
  </g>
  <defs>
    <linearGradient id="paint0_linear_720_12088" x1="18.2084" y1="150.635" x2="170.443" y2="150.635" gradientUnits="userSpaceOnUse">
      <stop stop-color="#FE5A6D"/>
      <stop offset="1" stop-color="#FF1A7A"/>
    </linearGradient>
    <linearGradient id="paint1_linear_720_12088" x1="159.682" y1="168.581" x2="179.639" y2="116.238" gradientUnits="userSpaceOnUse">
      <stop offset="0.21" stop-color="#FE5A6D"/>
      <stop offset="1" stop-color="#FF1A7A"/>
    </linearGradient>
    <clipPath id="clip0_720_12088">
      <rect width="209" height="242.36" fill="white" transform="translate(0 0.65918)"/>
    </clipPath>
  </defs>
</svg>