<svg width="24" height="24" viewBox="0 0 24 24" fill="none" xmlns="http://www.w3.org/2000/svg">
<g id="iconoir:home-simple">
<g id="Vector">
<path d="M17 20.9999H7C5.93913 20.9999 4.92172 20.5785 4.17157 19.8284C3.42143 19.0782 3 18.0608 3 16.9999V10.7079C2.99999 10.0202 3.17732 9.34399 3.51487 8.74473C3.85242 8.14548 4.33879 7.64338 4.927 7.28694L9.927 4.25694C10.5521 3.87814 11.2691 3.67786 12 3.67786C12.7309 3.67786 13.4479 3.87814 14.073 4.25694L19.073 7.28694C19.6611 7.6433 20.1473 8.14523 20.4849 8.7443C20.8224 9.34336 20.9998 10.0193 21 10.7069V16.9999C21 18.0608 20.5786 19.0782 19.8284 19.8284C19.0783 20.5785 18.0609 20.9999 17 20.9999ZM9 16.9999H15H9Z" fill="white"/>
<path d="M9 16.9999H15M17 20.9999H7C5.93913 20.9999 4.92172 20.5785 4.17157 19.8284C3.42143 19.0782 3 18.0608 3 16.9999V10.7079C2.99999 10.0202 3.17732 9.34399 3.51487 8.74473C3.85242 8.14548 4.33879 7.64338 4.927 7.28694L9.927 4.25694C10.5521 3.87814 11.2691 3.67786 12 3.67786C12.7309 3.67786 13.4479 3.87814 14.073 4.25694L19.073 7.28694C19.6611 7.6433 20.1473 8.14523 20.4849 8.7443C20.8224 9.34336 20.9998 10.0193 21 10.7069V16.9999C21 18.0608 20.5786 19.0782 19.8284 19.8284C19.0783 20.5785 18.0609 20.9999 17 20.9999Z" stroke="#BBBBBB" stroke-width="1.5" stroke-linecap="round" stroke-linejoin="round"/>
</g>
</g>
</svg>
