<svg width="24" height="24" viewBox="0 0 24 24" fill="none" xmlns="http://www.w3.org/2000/svg">
<g id="ion:options-outline">
<path id="Vector" d="M17.25 6H21M3 6H14.25M17.25 18H21M3 18H14.25M9.75 12H21M3 12H6.75" stroke="white" stroke-width="1.5" stroke-linecap="round" stroke-linejoin="round"/>
<path id="Vector_2" d="M15.5 8C16.3284 8 17 7.32843 17 6.5C17 5.67157 16.3284 5 15.5 5C14.6716 5 14 5.67157 14 6.5C14 7.32843 14.6716 8 15.5 8Z" stroke="white" stroke-width="1.5" stroke-linecap="round" stroke-linejoin="round"/>
<path id="Vector_3" d="M8.5 14C9.32843 14 10 13.3284 10 12.5C10 11.6716 9.32843 11 8.5 11C7.67157 11 7 11.6716 7 12.5C7 13.3284 7.67157 14 8.5 14Z" stroke="white" stroke-width="1.5" stroke-linecap="round" stroke-linejoin="round"/>
<path id="Vector_4" d="M15.5 20C16.3284 20 17 19.3284 17 18.5C17 17.6716 16.3284 17 15.5 17C14.6716 17 14 17.6716 14 18.5C14 19.3284 14.6716 20 15.5 20Z" stroke="white" stroke-width="1.5" stroke-linecap="round" stroke-linejoin="round"/>
</g>
</svg>
