<svg xmlns="http://www.w3.org/2000/svg" width="12" height="12" viewBox="0 0 12 12" fill="none">
  <path fill-rule="evenodd" clip-rule="evenodd" d="M5.20653 1.82097C5.73553 0.901473 7.06153 0.901473 7.59053 1.82097L11.612 8.81497C12.139 9.73147 11.477 10.875 10.42 10.875H2.37703C1.31953 10.875 0.658026 9.73147 1.18503 8.81497L5.20653 1.82097ZM6.39853 4.12497C6.49798 4.12497 6.59336 4.16448 6.66369 4.23481C6.73402 4.30513 6.77353 4.40052 6.77353 4.49997V6.49997C6.77353 6.59943 6.73402 6.69481 6.66369 6.76514C6.59336 6.83546 6.49798 6.87497 6.39853 6.87497C6.29907 6.87497 6.20369 6.83546 6.13336 6.76514C6.06304 6.69481 6.02353 6.59943 6.02353 6.49997V4.49997C6.02353 4.40052 6.06304 4.30513 6.13336 4.23481C6.20369 4.16448 6.29907 4.12497 6.39853 4.12497ZM6.68253 8.74997C6.74688 8.67572 6.77952 8.57918 6.77343 8.48111C6.76733 8.38304 6.72299 8.29128 6.64994 8.22557C6.57689 8.15986 6.48097 8.12544 6.3828 8.12972C6.28464 8.13401 6.19208 8.17665 6.12503 8.24847L6.12003 8.25397C6.05589 8.3282 6.0234 8.4246 6.02952 8.52251C6.03563 8.62041 6.07986 8.71202 6.15273 8.7777C6.2256 8.84337 6.3213 8.87788 6.41931 8.87381C6.51732 8.86975 6.60984 8.82745 6.67703 8.75597L6.68253 8.74997Z" fill="#E67100"/>
</svg>