<svg width="160" height="132" viewBox="0 0 160 132" fill="none" xmlns="http://www.w3.org/2000/svg">
<g id="Group 26087551">
<path id="Vector" d="M120.72 106.46L137.803 107.812C143.739 108.283 147.988 113.771 146.981 119.666L146.53 122.301L157.762 122.606C158.822 122.641 159.837 123.581 159.78 124.718C159.722 125.855 158.612 126.758 157.552 126.722L112.487 125.274C112.404 125.271 112.323 125.263 112.243 125.249C111.305 125.087 110.619 124.198 110.674 123.151C110.689 122.851 110.485 116.664 110.485 116.664C110.073 110.835 114.923 106 120.722 106.459L120.72 106.46Z" fill="#C5C5C5"/>
<g id="Group 26087550">
<path id="Vector_2" d="M50.6 116.209L50.8744 106.91L52.3045 85.5455C53.2992 79.3142 55.1371 88.2015 58.5509 82.3751L57.9746 71.275L42.825 70.249L36.5624 67.4956C31.7751 74.9224 30.5879 90.7553 31.034 99.3689C31.104 100.713 31.3083 103.924 31.4777 105.77C28.8061 105.182 25.8617 105.691 23.4134 107.407C18.9329 110.548 17.8077 116.545 20.8991 120.801C20.9767 120.908 21.0554 121.011 21.1367 121.113C22.6058 123.327 25.1792 124.752 28.1071 124.709L31.8118 124.655C34.2582 124.62 36.7054 124.477 39.145 124.228L43.3455 123.798C47.3507 123.389 50.4839 120.11 50.5992 116.207L50.6 116.209Z" fill="#D6D6D6"/>
<path id="Vector_3" d="M76.3394 116.207L76.6138 106.909L78.6962 79.7266C79.6909 73.4953 76.3415 72.2537 62.3656 73.25C57.5782 80.6768 56.3273 90.7541 56.7734 99.3677C56.8434 100.712 57.0477 103.923 57.2171 105.769C54.5455 105.181 51.6011 105.69 49.1528 107.405C44.6723 110.546 43.5471 116.544 46.6385 120.8C46.7161 120.907 46.7948 121.01 46.8761 121.112C48.3453 123.326 50.9186 124.751 53.8466 124.707L57.5512 124.653C59.9976 124.618 62.4448 124.476 64.8844 124.226L69.085 123.797C73.0901 123.387 76.2234 120.109 76.3387 116.206L76.3394 116.207Z" fill="#DDDDDD"/>
<path id="Intersect" fill-rule="evenodd" clip-rule="evenodd" d="M47.1984 95.224C73.4403 95.224 94.7135 73.8064 94.7135 47.3864C94.7135 39.5377 92.8361 32.1305 89.5087 25.5952C81.5853 10.383 65.7213 0.00206484 47.4437 0.00206484L47.4427 0C21.2402 0 0 21.3338 0 47.6493C0 64.8358 9.05969 79.8965 22.6451 88.2788C22.6331 88.2953 22.6212 88.3119 22.6092 88.3284C29.7826 92.7047 38.1983 95.224 47.1984 95.224ZM15.6814 41.0266C15.6814 55.7057 27.5292 67.6051 42.1447 67.6051C56.7601 67.6051 68.608 55.7057 68.608 41.0266C68.608 26.3475 56.7601 14.4481 42.1447 14.4481C27.5292 14.4481 15.6814 26.3475 15.6814 41.0266Z" fill="#EFEFEF"/>
<g id="Group 26087549">
<g id="Group 26087545">
<path id="Vector 2" d="M22.542 46.6579C25.2163 46.7295 30.9313 45.665 32.3969 40.8348" stroke="#888888" stroke-linecap="round"/>
</g>
<g id="Group 26087546">
<path id="Vector 2_2" d="M50.542 40.2751C48.1592 41.4995 42.5462 43.0176 39.1568 39.2941" stroke="#888888" stroke-linecap="round"/>
</g>
<path id="Vector 3" d="M33.3544 51.8568L35.1221 48.569C35.5557 47.7627 36.4794 47.3519 37.3658 47.5712L37.5208 47.6096C37.8277 47.6855 38.1527 47.6114 38.3972 47.4098L38.4246 47.3871C39.1743 46.7688 40.2578 46.7776 40.9941 47.4079L43.4917 49.5458" stroke="#888888" stroke-linecap="round"/>
</g>
</g>
</g>
</svg>
