<svg width="202" height="195" viewBox="0 0 202 195" fill="none" xmlns="http://www.w3.org/2000/svg">
<rect y="3.94922" width="201.813" height="191.049" fill="white"/>
<path d="M168.984 186.524C168.984 187.982 168.634 189.167 167.934 190.079C167.234 190.96 166.245 191.674 164.967 192.221C163.902 192.676 162.563 193.041 160.95 193.315C159.337 193.558 157.663 193.74 155.929 193.861C154.194 193.953 152.49 194.013 150.816 194.044C149.142 194.074 147.742 194.089 146.616 194.089C144.699 194.089 142.797 194.059 140.91 193.998C139.054 193.937 137.167 193.846 135.25 193.725C135.341 190.626 135.25 187.557 134.976 184.519C137.258 184.579 139.526 184.64 141.778 184.701C144.06 184.731 146.343 184.777 148.625 184.838C149.508 184.868 150.39 184.898 151.273 184.929C152.186 184.959 153.099 184.974 154.012 184.974C154.164 184.974 154.392 184.974 154.696 184.974C155.001 184.974 155.32 184.959 155.655 184.929C155.99 184.898 156.294 184.853 156.568 184.792C156.872 184.731 157.1 184.64 157.253 184.519C157.374 184.397 157.45 184.23 157.481 184.017C157.511 183.774 157.527 183.562 157.527 183.379C157.527 183.045 157.481 182.65 157.39 182.194C157.298 181.708 157.161 181.313 156.979 181.009C156.948 180.979 156.842 180.949 156.659 180.918C156.507 180.888 156.324 180.873 156.111 180.873C155.898 180.842 155.701 180.827 155.518 180.827C155.335 180.797 155.229 180.781 155.198 180.781C153.251 180.63 151.303 180.523 149.355 180.462C147.438 180.402 145.506 180.295 143.558 180.143C142.675 180.052 141.762 179.961 140.819 179.87C139.906 179.779 139.054 179.612 138.263 179.369C137.502 179.156 136.848 178.685 136.3 177.956C135.782 177.196 135.356 176.346 135.022 175.404C134.717 174.431 134.489 173.459 134.337 172.487C134.215 171.515 134.154 170.694 134.154 170.026C134.154 168.932 134.261 167.899 134.474 166.927C134.687 165.924 135.022 164.997 135.478 164.147C135.965 163.296 136.574 162.552 137.304 161.914C138.034 161.245 138.932 160.698 139.997 160.273C141.823 159.574 143.771 159.088 145.84 158.814C147.94 158.541 149.949 158.404 151.866 158.404C154.118 158.404 156.34 158.541 158.531 158.814C160.722 159.088 162.913 159.437 165.104 159.863C165.074 160.744 165.043 161.625 165.013 162.506C165.013 163.357 165.013 164.223 165.013 165.104C165.013 165.985 165.059 166.881 165.15 167.793C165.241 168.674 165.332 169.555 165.424 170.436C162.533 170.497 159.642 170.558 156.75 170.618C153.89 170.649 150.999 170.725 148.077 170.846C147.712 170.846 147.21 170.861 146.571 170.892C145.962 170.922 145.369 170.968 144.79 171.028C144.212 171.059 143.71 171.089 143.284 171.12C142.858 171.15 142.645 171.165 142.645 171.165C142.493 171.499 142.402 171.849 142.371 172.213C142.341 172.548 142.325 172.897 142.325 173.262C142.325 173.444 142.325 173.672 142.325 173.945C142.356 174.219 142.432 174.431 142.554 174.583C142.584 174.614 142.843 174.659 143.33 174.72C143.817 174.781 144.349 174.842 144.927 174.902C145.536 174.963 146.099 175.024 146.616 175.085C147.164 175.145 147.499 175.176 147.621 175.176C148.625 175.267 149.797 175.373 151.136 175.495C152.505 175.616 153.89 175.753 155.29 175.905C156.72 176.057 158.09 176.254 159.398 176.497C160.707 176.71 161.848 176.968 162.822 177.272C163.704 177.576 164.511 178.062 165.241 178.731C166.002 179.369 166.656 180.128 167.204 181.009C167.752 181.86 168.178 182.772 168.482 183.744C168.817 184.686 168.984 185.612 168.984 186.524Z" fill="#FF3478"/>
<path d="M129.265 166.653C129.265 167.808 129.006 168.917 128.489 169.98C127.971 171.013 127.439 172.016 126.891 172.988H121.87C122.174 172.624 122.493 172.259 122.828 171.894C123.163 171.499 123.467 171.104 123.741 170.709C124.015 170.284 124.228 169.843 124.38 169.388C124.563 168.932 124.654 168.446 124.654 167.929V167.428L120.318 167.337C120.135 166.911 119.937 166.349 119.724 165.651C119.541 164.921 119.45 164.314 119.45 163.828C119.45 163.22 119.602 162.612 119.907 162.005C120.211 161.367 120.576 160.804 121.002 160.318L128.215 160.41C128.55 161.412 128.808 162.445 128.991 163.509C129.173 164.542 129.265 165.59 129.265 166.653Z" fill="#5C77FF"/>
<path d="M115.474 168.019V171.209L106.663 171.665C106.542 173.427 106.45 175.174 106.389 176.906C106.329 178.637 106.298 180.369 106.298 182.101C106.298 184.228 106.237 186.355 106.116 188.482C106.024 190.578 105.902 192.674 105.75 194.771C104.655 194.832 103.559 194.877 102.464 194.908C101.368 194.968 100.272 194.999 99.1769 194.999C98.7813 194.999 98.3856 194.984 97.99 194.953C97.6248 194.953 97.2596 194.953 96.8944 194.953C96.9553 193.1 97.001 191.262 97.0314 189.439C97.0923 187.585 97.1227 185.747 97.1227 183.924C97.1227 182.101 97.077 180.278 96.9857 178.455C96.8944 176.602 96.7879 174.748 96.6662 172.895C95.7837 172.925 94.8859 172.956 93.9729 172.986C93.0904 173.017 92.1926 173.032 91.2796 173.032C90.7623 173.032 90.2449 173.032 89.7276 173.032C89.2406 173.032 88.7385 173.017 88.2212 172.986C88.1299 170.738 88.069 168.505 88.0386 166.287C88.0081 164.069 87.9777 161.851 87.9473 159.633C92.5122 159.724 97.0466 159.861 101.551 160.043C106.055 160.195 110.574 160.332 115.108 160.453C115.23 161.76 115.321 163.036 115.382 164.281C115.443 165.497 115.474 166.742 115.474 168.019Z" fill="#FF3478"/>
<path d="M84.9288 166.789C81.9464 166.941 78.9792 167.108 76.0272 167.291C73.1057 167.443 70.1537 167.64 67.1714 167.883L67.0801 171.484L78.8575 170.8C79.0096 171.833 79.1161 172.851 79.177 173.853C79.2683 174.856 79.3139 175.874 79.3139 176.907C79.3139 177.332 79.2987 177.773 79.2683 178.229C79.2683 178.684 79.2683 179.125 79.2683 179.55L68.3126 181.51L68.9973 187.161C71.3102 187.009 73.6078 186.797 75.8903 186.523C78.2032 186.219 80.5312 185.961 82.8746 185.748C83.0876 187.268 83.3006 188.802 83.5136 190.351C83.7267 191.871 84.031 193.359 84.4266 194.818C80.1052 194.787 75.8142 194.787 71.5536 194.818C67.2931 194.879 63.0021 194.909 58.6807 194.909C58.772 191.354 58.8785 187.814 59.0002 184.29C59.1219 180.766 59.1828 177.211 59.1828 173.626V172.76C59.1828 170.694 59.1524 168.643 59.0915 166.607C59.0306 164.541 58.9698 162.46 58.9089 160.363C61.3131 160.394 63.702 160.409 66.0758 160.409C68.48 160.378 70.8993 160.363 73.3339 160.363C75.1903 160.363 77.0315 160.409 78.8575 160.5C80.7138 160.561 82.5702 160.637 84.4266 160.728L84.9288 166.789Z" fill="#FF3478"/>
<path d="M54.7493 193.405C51.1278 193.678 47.5215 193.937 43.9305 194.18C40.3699 194.423 36.7788 194.651 33.1574 194.863C33.0052 189.06 32.8835 183.303 32.7922 177.591C32.7009 171.848 32.5335 166.06 32.29 160.227C34.329 160.196 36.3376 160.135 38.3157 160.044C40.2938 159.953 42.2871 159.832 44.2957 159.68C43.9609 161.928 43.6414 164.192 43.3371 166.47C43.0632 168.719 42.8501 170.982 42.698 173.261C42.5762 175.175 42.4697 177.089 42.3784 179.003C42.3176 180.887 42.2567 182.786 42.1958 184.7C44.2044 184.761 46.1825 184.791 48.1302 184.791C50.1083 184.791 52.0864 184.822 54.0645 184.882L54.7493 193.405Z" fill="#FF3478"/>
<g clip-path="url(#clip0_73_4909)">
<path d="M131.506 107.251L124.582 104.479L119.831 102.645C115.426 100.196 111.727 96.1971 108.327 92.0965L99.8005 89.4473L89.2904 92.8841L77.7627 99.6995C81.9701 105.244 106.543 114.805 113.159 116.861C114.192 117.182 116.669 117.921 118.109 118.308C116.893 120.094 116.423 122.381 117.007 124.641C118.075 128.777 122.266 131.256 126.367 130.179C126.469 130.152 126.57 130.123 126.67 130.092C128.763 129.633 130.581 128.15 131.396 126.003L132.428 123.287C133.109 121.493 133.71 119.669 134.229 117.821L135.121 114.639C135.972 111.605 134.41 108.414 131.504 107.251H131.506Z" fill="#DD1972"/>
<path d="M53.0564 75.1494L56.8737 76.137L61.4961 72.4986L61.0535 63.6233L58.3464 60.3272L52.5971 59.9434L48.2256 61.8081L49.2216 65.9183L50.5668 72.1068L53.0564 75.1494Z" fill="#DD1972"/>
<path d="M56.8937 76.2237L56.852 76.2133L53.008 75.2193L50.4893 72.1415L49.1399 65.9338L48.1289 61.7613L52.5821 59.8613L52.603 59.8629L58.3898 60.25L58.4123 60.2779L61.1361 63.5941L61.1377 63.6197L61.582 72.5349L61.5495 72.5605L56.8945 76.2253L56.8937 76.2237ZM53.1047 75.0786L56.8537 76.0477L61.4103 72.4613L60.9719 63.6516L58.3039 60.4035L52.6121 60.0229L48.3223 61.8524L49.3024 65.8986L50.6443 72.0711L53.1047 75.0778V75.0786Z" fill="white"/>
<path d="M52.4287 76.093C52.4287 76.093 57.057 77.7874 59.5524 75.5564C62.0478 73.3262 62.1028 71.168 62.1028 71.168" fill="#DD1972"/>
<path d="M55.9965 76.7811C54.1112 76.7811 52.4268 76.1774 52.3984 76.167L52.4576 76.0175C52.5035 76.0343 57.0667 77.6679 59.4946 75.4977C61.9359 73.3155 62.0184 71.1876 62.0184 71.166L62.1851 71.17C62.1851 71.1916 62.1 73.3866 59.608 75.6144C58.6045 76.5108 57.2559 76.7811 55.9965 76.7811Z" fill="white"/>
<path d="M49.3973 71.9633C49.3973 71.9633 45.5842 71.5091 45.3149 74.1791C45.0457 76.8491 47.5345 78.2117 50.1366 78.4532C52.7387 78.6947 55.5658 77.0274 55.7525 75.1819C55.9392 73.3355 54.4531 71.6674 53.0687 71.5723" fill="#DD1972"/>
<path d="M50.6471 78.5559C50.4737 78.5559 50.3012 78.5479 50.1295 78.5319C47.6907 78.3056 44.9445 77.027 45.2328 74.1706C45.3004 73.5021 45.5904 72.9664 46.0963 72.5777C47.3099 71.6454 49.3235 71.8725 49.4085 71.8829L49.3877 72.0412C49.3677 72.0388 47.3574 71.8125 46.1997 72.7025C45.7313 73.0631 45.4612 73.5621 45.3987 74.185C45.122 76.9246 47.7833 78.1529 50.1462 78.372C52.6982 78.6087 55.487 76.9942 55.6712 75.1726C55.7621 74.2738 55.4495 73.3438 54.8136 72.6217C54.3068 72.046 53.6692 71.6917 53.0641 71.6502L53.0758 71.4902C53.7251 71.535 54.4052 71.9092 54.9403 72.5178C55.6046 73.2726 55.9313 74.2458 55.8363 75.187C55.6571 76.9638 53.1283 78.5543 50.6471 78.5543V78.5559Z" fill="white"/>
<path d="M47.9035 65.9697C47.9035 65.9697 45.0705 65.6067 44.7779 68.499C44.4862 71.3913 46.5766 73.3328 50.3114 73.6799C54.0461 74.0269 55.263 72.0934 55.4722 70.7404C55.6814 69.3874 54.9796 67.4498 52.5184 66.3983" fill="#DD1972"/>
<path d="M51.1462 73.7985C50.8787 73.7985 50.5978 73.7857 50.3027 73.7578C48.4491 73.5858 46.953 73.0125 45.9762 72.1001C44.9927 71.1813 44.5493 69.9331 44.6951 68.4905C44.786 67.5861 45.1319 66.9 45.7211 66.4514C46.658 65.7381 47.8632 65.8829 47.9148 65.8893L47.8932 66.0476C47.8815 66.046 46.7046 65.906 45.8245 66.5769C45.2727 66.9976 44.9493 67.6461 44.8627 68.5057C44.576 71.3508 46.6163 73.2548 50.3211 73.5986C53.6825 73.9105 55.1444 72.32 55.3911 70.7271C55.6095 69.3189 54.7951 67.4566 52.4856 66.4698L52.5531 66.3235C54.9427 67.3446 55.7828 69.2829 55.5553 70.7503C55.3194 72.2744 54.03 73.7977 51.1479 73.7977L51.1462 73.7985Z" fill="white"/>
<path d="M51.5923 61.7863C51.5923 61.7863 56.6681 64.1876 55.2362 67.4486C53.8043 70.7095 47.3241 70.3401 46.3547 65.16C45.3862 59.9791 49.3977 58.7876 52.0532 58.5022C54.7086 58.2167 59.697 60.8427 59.697 60.8427" fill="#DD1972"/>
<path d="M51.5442 69.6279C51.3533 69.6279 51.1591 69.6175 50.9633 69.5967C49.058 69.3936 46.8259 68.1254 46.2733 65.1723C45.9249 63.3083 46.1908 61.7938 47.0651 60.6695C48.0295 59.4293 49.7047 58.6728 52.0443 58.4209C54.6947 58.1354 59.533 60.6631 59.7372 60.7711L59.6572 60.911C59.608 60.8846 54.6622 58.301 52.0626 58.58C49.7706 58.8263 48.1336 59.562 47.1985 60.7655C46.3533 61.8522 46.0975 63.3259 46.4375 65.1443C46.9734 68.0102 49.1363 69.2417 50.9816 69.4376C52.8628 69.6383 54.5414 68.8251 55.1598 67.4161C56.545 64.2615 51.6059 61.8802 51.5559 61.857L51.6292 61.7138C51.6417 61.7202 52.9228 62.3312 54.0088 63.3363C55.4615 64.6797 55.9133 66.1127 55.3132 67.4793C54.7306 68.8067 53.257 69.6287 51.5442 69.6287V69.6279Z" fill="white"/>
<path d="M55.1635 23.1484H52.9307V63.9575H55.1635V23.1484Z" fill="#5C77FF"/>
<path d="M58.3228 66.3373C58.3228 66.3373 53.5637 66.7603 52.7002 64.3174C51.8368 61.8745 53.027 60.3879 55.9416 59.6938C59.5022 58.8454 62.6452 59.2516 62.4694 64.4261" fill="#DD1972"/>
<path d="M57.4851 66.4478C56.0591 66.4478 53.2778 66.2016 52.6202 64.3432C52.2301 63.2397 52.2501 62.2985 52.6793 61.5452C53.1853 60.6568 54.2754 60.0083 55.9199 59.6165C58.3153 59.0455 60.0081 59.1783 61.0957 60.0219C62.1334 60.8271 62.6235 62.3097 62.5518 64.4287L62.3851 64.4231C62.4551 62.3569 61.9859 60.9175 60.9907 60.1459C59.9464 59.3358 58.3011 59.2135 55.9599 59.7708C54.3621 60.1514 53.3078 60.7736 52.8252 61.6212C52.4193 62.3337 52.4035 63.2317 52.7777 64.2912C53.6095 66.6462 58.2661 66.2607 58.3136 66.2567L58.3286 66.4159C58.2794 66.4199 57.956 66.447 57.4843 66.447L57.4851 66.4478Z" fill="white"/>
<path d="M152.628 54.3194L128.019 46.75L125.74 60.4903L150.313 68.1685C153.126 69.0481 155.929 66.646 156.565 62.8109C157.199 58.9846 155.436 55.1831 152.627 54.3186L152.628 54.3194Z" fill="#4C6BD8"/>
<path d="M156.803 78.7803L154.801 87.2342C153.24 93.8289 146.694 98.1917 139.708 97.2937L121.107 94.9012C120.025 94.762 119.264 93.8209 119.302 92.6718C119.672 81.7262 122.398 70.7951 127.277 60.6836L145.273 62.9266C153.235 63.919 158.58 71.2693 156.803 78.7811V78.7803Z" fill="#4967BA"/>
<path d="M97.89 31.2559C76.6239 31.2559 59.3853 47.7957 59.3853 68.1978C59.3853 81.5223 66.7381 93.1987 77.7641 99.6974C74.5986 103.868 71.8865 108.745 69.9403 112.204L69.4769 112.921C68.0725 110.647 65.4888 109.122 62.5333 109.122C58.0792 109.122 54.4678 112.587 54.4678 116.86C54.4678 116.967 54.4703 117.073 54.4753 117.178C54.3836 119.336 55.3971 121.484 57.3474 122.822L59.8137 124.514C61.4423 125.631 63.1225 126.677 64.8495 127.649L67.8217 129.322C70.6563 130.917 74.2894 130.197 76.2331 127.655L80.863 121.597L84.5269 117.888C88.1642 114.206 92.6224 111.14 97.6599 108.856L105.55 105.277C107.731 104.289 109.944 103.371 112.184 102.512C126.372 97.0666 136.396 83.7565 136.396 68.1994C136.396 47.7965 119.156 31.2575 97.8908 31.2575L97.89 31.2559ZM93.5901 83.6694C81.7281 83.6694 72.1124 74.4439 72.1124 63.0633C72.1124 51.6828 81.7281 42.4573 93.5901 42.4573C105.452 42.4573 115.068 51.6828 115.068 63.0633C115.068 74.4439 105.452 83.6694 93.5901 83.6694Z" fill="url(#paint0_linear_73_4909)"/>
<path d="M86.8078 59.8564C88.3591 59.8564 89.6166 58.6499 89.6166 57.1616C89.6166 55.6733 88.3591 54.4668 86.8078 54.4668C85.2566 54.4668 83.999 55.6733 83.999 57.1616C83.999 58.6499 85.2566 59.8564 86.8078 59.8564Z" fill="#FF1A7A"/>
<path d="M97.9143 60.4697C99.4655 60.4697 100.723 59.2632 100.723 57.7749C100.723 56.2866 99.4655 55.0801 97.9143 55.0801C96.363 55.0801 95.1055 56.2866 95.1055 57.7749C95.1055 59.2632 96.363 60.4697 97.9143 60.4697Z" fill="#FF1A7A"/>
<path d="M95.9968 65C95.2265 65 94.2811 65.3592 93.1763 66.0747C92.0821 66.7824 90.8145 66.8505 89.6065 66.2662C87.7813 65.3836 86.6179 65.1671 85.8327 65.565C85.1901 65.8905 84.924 66.578 85.0186 67.6671C85.0361 67.8643 85.2435 68.0134 85.486 67.999C85.7267 67.9847 85.9088 67.8134 85.8913 67.6162C85.8239 66.8404 85.9622 66.3422 86.2922 66.1751C86.6048 66.0167 87.3558 66.0109 89.16 66.8835C90.6797 67.6183 92.3403 67.5287 93.7182 66.6375C94.8781 65.8869 95.8104 65.58 96.3452 65.7729C96.895 65.9715 97.0727 66.7336 97.1261 67.338C97.1436 67.5352 97.3528 67.6843 97.5935 67.67C97.8343 67.6556 98.0163 67.4843 97.9988 67.2871C97.8973 66.122 97.4596 65.3922 96.698 65.1176C96.4827 65.0402 96.2489 65.0014 95.9951 65.0014L95.9968 65Z" fill="#FF1A7A"/>
<path d="M96.512 20.7048L110.164 23.2541C114.908 24.1401 117.835 28.7428 116.485 33.1953L115.882 35.1848L124.912 36.4106C125.763 36.5314 126.496 37.3446 126.346 38.2154C126.196 39.0862 125.218 39.6844 124.367 39.5628L88.1589 34.4715C88.0922 34.4619 88.0272 34.4483 87.9639 34.4307C87.2221 34.2236 86.7504 33.4783 86.8895 32.6763C86.9296 32.4468 87.3288 27.6625 87.3288 27.6625C87.5272 23.1357 91.8787 19.8396 96.5136 20.7048H96.512Z" fill="#5C77FF"/>
<path d="M127.607 91.4384L126.865 91.9197C126.528 92.138 126.174 92.3268 125.806 92.4859C126.387 93.6582 127.027 94.7313 127.706 95.6677L135.721 96.6984C134.23 95.2559 132.878 93.4511 131.771 91.3672C130.367 91.8174 128.859 91.703 127.607 91.4392V91.4384Z" fill="#5C77FF"/>
<path d="M152.445 72.3115C152.019 62.4302 145.489 58.903 135.002 57.1758L134.982 69.9637C138.892 69.7598 141.124 70.4195 140.372 74.8431C139.86 77.861 137.298 77.9529 136.421 77.8834C134.939 77.7658 133.721 76.6111 133.442 75.1406C132.623 70.8073 132.211 68.4404 129.111 69.2392C126.144 70.0037 126.534 73.9051 126.668 74.8167L126.526 74.716C126.526 74.716 123.093 73.6701 120.342 76.3784C117.592 79.0868 119.309 82.2838 119.309 82.2838L119.376 82.2127C119.291 82.3598 119.212 82.5165 119.143 82.682C118.071 85.2313 119.549 87.1689 119.747 87.4111C118.996 88.7537 119.316 90.2299 120.191 91.5109C121.008 92.7072 122.386 92.9487 123.6 92.8759C124.8 92.8039 125.953 92.4057 126.949 91.7596L127.691 91.2782C129.209 91.5981 131.104 91.6996 132.732 90.8392C134.026 90.1555 134.89 89.1472 135.44 88.1412C138.03 88.1684 142.024 88.8177 145.807 86.7658C151.105 83.8919 152.688 77.9202 152.446 72.3107L152.445 72.3115Z" fill="url(#paint1_linear_73_4909)"/>
<path d="M136.906 77.9084C136.68 77.9084 136.488 77.8932 136.346 77.882C134.838 77.7621 133.582 76.6074 133.292 75.0737L133.266 74.9305C132.731 72.0998 132.344 70.0551 131.201 69.3602C130.675 69.0412 129.977 68.9996 129.065 69.2347C125.814 70.0727 126.703 74.8626 126.712 74.9114C126.72 74.9545 126.69 74.9961 126.645 75.0049C126.6 75.0129 126.556 74.9841 126.548 74.9409C126.545 74.9289 126.31 73.6879 126.492 72.3573C126.735 70.5773 127.611 69.445 129.022 69.0812C129.981 68.8341 130.723 68.8812 131.29 69.2259C132.495 69.9576 132.866 71.9247 133.43 74.9026L133.457 75.0457C133.733 76.5082 134.928 77.6094 136.36 77.7229C137.119 77.7829 139.426 77.966 140.11 74.9897C140.527 73.1753 140.379 71.8983 139.659 71.0843C138.868 70.1911 137.362 69.8344 134.918 69.9624C134.872 69.964 134.833 69.9312 134.831 69.8872C134.828 69.8432 134.863 69.8056 134.909 69.8032C137.41 69.6729 138.959 70.0471 139.786 70.9819C140.542 71.8359 140.701 73.1585 140.273 75.0249C139.685 77.583 137.947 77.9092 136.906 77.9092V77.9084Z" fill="white"/>
<path d="M137.74 88.2785C135.012 88.2785 132.837 87.9746 132.795 87.9682C132.749 87.9618 132.718 87.921 132.725 87.877C132.731 87.833 132.773 87.8035 132.82 87.8099C132.9 87.8219 140.963 88.9478 145.512 86.8271C149.847 84.8064 152.289 80.23 152.385 73.9416C152.536 64.2283 147.313 59.2138 134.92 57.1723C134.875 57.1651 134.844 57.1235 134.852 57.0803C134.859 57.0371 134.902 57.0076 134.947 57.0148C140.859 57.9879 144.928 59.5488 147.753 61.9246C151.063 64.7097 152.633 68.6408 152.551 73.9432C152.504 76.9379 151.944 79.5495 150.883 81.7054C149.698 84.1123 147.915 85.8835 145.584 86.9702C143.357 88.0082 140.303 88.2776 137.739 88.2776L137.74 88.2785Z" fill="white"/>
<path d="M119.24 82.2838C119.21 82.2838 119.181 82.2678 119.166 82.2406C119.148 82.2078 117.453 78.9612 120.213 76.2425C122.968 73.5301 126.448 74.5488 126.482 74.5592C126.526 74.5728 126.55 74.6176 126.536 74.66C126.522 74.7023 126.475 74.7255 126.432 74.7119C126.398 74.7015 123.014 73.7148 120.333 76.3544C117.657 78.9884 119.297 82.1358 119.313 82.167C119.334 82.2062 119.318 82.2542 119.277 82.275C119.265 82.2814 119.252 82.2838 119.239 82.2838H119.24Z" fill="white"/>
<path d="M119.7 87.4351C119.676 87.4351 119.652 87.4255 119.636 87.4063C119.617 87.3855 117.844 85.3096 118.997 82.5701C120.15 79.8281 123.663 79.5866 123.699 79.5842C123.746 79.581 123.785 79.6146 123.787 79.6594C123.79 79.7041 123.756 79.7417 123.709 79.7441C123.675 79.7465 120.265 79.9824 119.151 82.63C118.036 85.2825 119.746 87.284 119.763 87.304C119.793 87.3376 119.788 87.3879 119.753 87.4167C119.737 87.4295 119.718 87.4351 119.7 87.4351Z" fill="white"/>
<path d="M123.151 92.8853C121.752 92.8853 120.686 92.4007 120.051 91.4724C119.19 90.2121 118.954 88.8903 119.388 87.7516C119.969 86.2243 121.65 85.0512 124.384 84.2652C124.428 84.2524 124.474 84.2763 124.488 84.3187C124.501 84.3611 124.476 84.4059 124.432 84.4187C121.788 85.1783 120.099 86.3498 119.544 87.8068C119.014 89.2038 119.603 90.524 120.19 91.3852C120.856 92.36 121.978 92.807 123.524 92.7142C124.684 92.6446 125.827 92.2632 126.833 91.6115L127.575 91.1301C127.613 91.1053 127.665 91.1149 127.691 91.1517C127.717 91.1885 127.707 91.2381 127.668 91.2629L126.927 91.7442C125.896 92.4119 124.724 92.803 123.535 92.8741C123.404 92.8821 123.276 92.8861 123.151 92.8861V92.8853Z" fill="white"/>
<path d="M129.733 91.509C128.373 91.509 126.825 91.174 125.102 90.5047L125.054 90.4863C124.119 90.1232 122.734 90.9749 122.72 90.9837C122.682 91.0077 122.63 90.9973 122.605 90.9605C122.58 90.9237 122.591 90.8741 122.629 90.8501C122.689 90.8133 124.1 89.9441 125.117 90.3383L125.164 90.3567C128.256 91.5578 130.766 91.6698 132.624 90.6886C133.745 90.0961 134.67 89.1749 135.299 88.0234C135.321 87.9842 135.371 87.969 135.412 87.9898C135.452 88.0106 135.468 88.0586 135.447 88.0977C134.802 89.2772 133.854 90.2216 132.704 90.8285C131.845 91.2827 130.852 91.509 129.733 91.509Z" fill="white"/>
<path d="M133.819 54.4023C129.823 56.8317 126.31 63.2272 125.468 64.9265C124.042 67.802 123.051 71.1693 122.646 74.8213C124.595 74.2031 126.274 74.7141 126.274 74.7141L126.415 74.8149C126.282 73.9033 125.892 70.0026 128.859 69.2373C129.563 69.0558 130.128 69.0382 130.591 69.1694C131.564 66.6121 132.846 64.1092 134.332 62.0166C134.673 61.5376 134.986 61.0418 135.283 60.5364L137 57.6097L136.878 57.5417C135.56 56.8053 134.497 55.7138 133.819 54.4023Z" fill="#5C77FF"/>
<path d="M52.9307 13.1438V0L71.1395 6.57228L89.3492 13.1438L71.1395 19.716L52.9307 26.2875V13.1438Z" fill="#5C77FF"/>
<g clip-path="url(#clip1_73_4909)">
<path d="M100.096 60.0311C100.02 60.005 99.9384 60.0021 99.861 60.0228C99.7836 60.0435 99.7141 60.087 99.6616 60.1475C99.5661 60.2562 97.3929 62.8337 98.1285 65.5793C98.3421 66.3764 98.8636 67.056 99.5783 67.4687C100.293 67.8813 101.142 67.9931 101.939 67.7795C102.736 67.5659 103.416 67.0444 103.829 66.3298C104.241 65.6151 104.353 64.7658 104.14 63.9687C103.391 61.1765 100.228 60.0747 100.096 60.0311ZM101.732 67.0039C101.14 67.1612 100.511 67.0778 99.9806 66.7718C99.4506 66.4659 99.0636 65.9623 98.9042 65.3715C98.3846 63.4325 99.6255 61.533 100.095 60.896C100.822 61.2041 102.844 62.2375 103.364 64.1765C103.521 64.7679 103.438 65.3975 103.132 65.9274C102.826 66.4574 102.322 66.8445 101.732 67.0039Z" fill="#5C77FF"/>
</g>
<g clip-path="url(#clip2_73_4909)">
<path d="M84.7485 59.2766C84.7134 59.2046 84.6576 59.1447 84.5882 59.1046C84.5188 59.0645 84.439 59.0461 84.3591 59.0518C84.2146 59.0611 80.8554 59.3469 79.4342 61.8086C79.0215 62.5233 78.9097 63.3726 79.1233 64.1697C79.3369 64.9668 79.8584 65.6464 80.573 66.059C81.2877 66.4717 82.137 66.5835 82.9341 66.3699C83.7312 66.1563 84.4108 65.6348 84.8235 64.9202C86.2688 62.4167 84.8112 59.4009 84.7485 59.2766ZM80.9745 65.3637C80.4451 65.0568 80.0589 64.5525 79.9005 63.9615C79.7421 63.3704 79.8245 62.7406 80.1295 62.2101C81.1333 60.4716 83.3539 60.0059 84.1362 59.8874C84.4323 60.6193 85.1318 62.7802 84.1281 64.5187C83.8212 65.0481 83.317 65.4343 82.7259 65.5927C82.1348 65.7511 81.505 65.6687 80.9745 65.3637Z" fill="#5C77FF"/>
</g>
</g>
<defs>
<linearGradient id="paint0_linear_73_4909" x1="54.4669" y1="80.7115" x2="136.395" y2="80.7115" gradientUnits="userSpaceOnUse">
<stop stop-color="#FE5A6D"/>
<stop offset="1" stop-color="#FF1A7A"/>
</linearGradient>
<linearGradient id="paint1_linear_73_4909" x1="130.604" y1="90.3706" x2="141.344" y2="62.2015" gradientUnits="userSpaceOnUse">
<stop offset="0.21" stop-color="#FE5A6D"/>
<stop offset="1" stop-color="#FF1A7A"/>
</linearGradient>
<clipPath id="clip0_73_4909">
<rect width="112.477" height="130.43" fill="white" transform="translate(44.668)"/>
</clipPath>
<clipPath id="clip1_73_4909">
<rect width="9.63566" height="9.63566" fill="white" transform="translate(95 60.4941) rotate(-15)"/>
</clipPath>
<clipPath id="clip2_73_4909">
<rect width="9.63566" height="9.63566" fill="white" transform="translate(80.8174 56) rotate(30)"/>
</clipPath>
</defs>
</svg>
