<svg xmlns="http://www.w3.org/2000/svg" width="254" height="68" viewBox="0 0 254 68" fill="none">
  <path d="M254 52.2506C254 54.9606 253.35 57.1624 252.049 58.8561C250.749 60.4933 248.911 61.82 246.536 62.8363C244.556 63.6831 242.068 64.3606 239.071 64.8687C236.074 65.3204 232.964 65.6591 229.741 65.8849C226.517 66.0543 223.351 66.1672 220.241 66.2237C217.13 66.2801 214.529 66.3083 212.437 66.3083C208.874 66.3083 205.34 66.2519 201.834 66.139C198.385 66.0261 194.879 65.8567 191.316 65.6309C191.486 59.8723 191.316 54.1702 190.807 48.5245C195.048 48.6374 199.261 48.7503 203.446 48.8632C207.687 48.9197 211.928 49.0044 216.169 49.1173C217.809 49.1738 219.449 49.2302 221.089 49.2867C222.785 49.3431 224.482 49.3713 226.178 49.3713C226.461 49.3713 226.885 49.3713 227.451 49.3713C228.016 49.3713 228.61 49.3431 229.232 49.2867C229.854 49.2302 230.419 49.1455 230.928 49.0326C231.494 48.9197 231.918 48.7503 232.201 48.5245C232.427 48.2987 232.568 47.9882 232.625 47.593C232.681 47.1413 232.71 46.7461 232.71 46.4074C232.71 45.7864 232.625 45.0524 232.455 44.2056C232.285 43.3023 232.031 42.5683 231.692 42.0038C231.635 41.9473 231.437 41.8908 231.098 41.8344C230.815 41.7779 230.476 41.7497 230.08 41.7497C229.684 41.6932 229.317 41.665 228.977 41.665C228.638 41.6086 228.44 41.5803 228.384 41.5803C224.764 41.298 221.145 41.1004 217.526 40.9875C213.964 40.8746 210.373 40.677 206.754 40.3947C205.114 40.2254 203.417 40.056 201.664 39.8866C199.968 39.7173 198.385 39.4067 196.914 38.9551C195.501 38.5599 194.285 37.6848 193.267 36.3299C192.306 34.9184 191.514 33.3377 190.892 31.5875C190.326 29.7809 189.902 27.9743 189.62 26.1677C189.393 24.361 189.28 22.8367 189.28 21.5947C189.28 19.5622 189.478 17.6427 189.874 15.8361C190.27 13.973 190.892 12.2511 191.74 10.6703C192.645 9.08952 193.776 7.70633 195.133 6.52074C196.49 5.2787 198.158 4.26248 200.138 3.47208C203.53 2.17358 207.15 1.27027 210.995 0.762165C214.897 0.254055 218.629 0 222.192 0C226.376 0 230.504 0.254055 234.576 0.762165C238.647 1.27027 242.719 1.91953 246.79 2.70992C246.734 4.34716 246.677 5.98441 246.62 7.62165C246.62 9.20244 246.62 10.8115 246.62 12.4487C246.62 14.0859 246.705 15.7514 246.875 17.4451C247.045 19.0824 247.214 20.7196 247.384 22.3568C242.012 22.4698 236.64 22.5827 231.268 22.6956C225.952 22.752 220.58 22.8932 215.151 23.119C214.473 23.119 213.54 23.1472 212.352 23.2037C211.221 23.2601 210.118 23.3448 209.044 23.4577C207.97 23.5142 207.037 23.5707 206.245 23.6271C205.453 23.6836 205.057 23.7118 205.057 23.7118C204.775 24.3328 204.605 24.9821 204.548 25.6596C204.492 26.2806 204.464 26.9298 204.464 27.6073C204.464 27.946 204.464 28.3695 204.464 28.8776C204.52 29.3857 204.661 29.7809 204.888 30.0632C204.944 30.1196 205.425 30.2043 206.33 30.3172C207.234 30.4301 208.224 30.5431 209.298 30.656C210.429 30.7689 211.476 30.8818 212.437 30.9947C213.455 31.1076 214.077 31.1641 214.303 31.1641C216.169 31.3334 218.346 31.531 220.834 31.7569C223.379 31.9827 225.952 32.2368 228.553 32.519C231.211 32.8013 233.756 33.1683 236.187 33.6199C238.619 34.0151 240.739 34.495 242.549 35.0596C244.189 35.6242 245.687 36.5275 247.045 37.7695C248.458 38.9551 249.674 40.3665 250.692 42.0038C251.71 43.5845 252.502 45.2782 253.067 47.0849C253.689 48.835 254 50.5569 254 52.2506Z" fill="#FF3478"/>
  <path d="M180.194 15.3298C180.194 17.4752 179.713 19.5358 178.752 21.5118C177.791 23.4313 176.801 25.2944 175.783 27.101H166.453C167.018 26.4235 167.612 25.7461 168.234 25.0686C168.856 24.3346 169.421 23.6007 169.93 22.8668C170.439 22.0764 170.835 21.2578 171.118 20.4109C171.457 19.5641 171.627 18.6608 171.627 17.701V16.7695L163.569 16.6001C163.229 15.8097 162.862 14.7652 162.466 13.4667C162.127 12.1118 161.957 10.9826 161.957 10.0793C161.957 8.9502 162.24 7.82107 162.805 6.69194C163.371 5.50635 164.049 4.4619 164.841 3.55859L178.243 3.72796C178.865 5.59103 179.346 7.51056 179.685 9.48654C180.024 11.4061 180.194 13.3538 180.194 15.3298Z" fill="#5C77FF"/>
  <path d="M154.568 17.8652V23.7932L138.197 24.64C137.971 27.9145 137.801 31.1608 137.688 34.3788C137.575 37.5968 137.518 40.8149 137.518 44.0329C137.518 47.9849 137.405 51.9368 137.179 55.8888C137.009 59.7843 136.783 63.6798 136.5 67.5753C134.465 67.6882 132.429 67.7729 130.393 67.8294C128.357 67.9423 126.322 67.9988 124.286 67.9988C123.551 67.9988 122.816 67.9705 122.08 67.9141C121.402 67.9141 120.723 67.9141 120.045 67.9141C120.158 64.4702 120.243 61.0546 120.299 57.6672C120.412 54.2233 120.469 50.8077 120.469 47.4203C120.469 44.0329 120.384 40.6455 120.214 37.2581C120.045 33.8142 119.847 30.3704 119.621 26.9265C117.981 26.983 116.312 27.0394 114.616 27.0959C112.976 27.1524 111.308 27.1806 109.611 27.1806C108.65 27.1806 107.689 27.1806 106.728 27.1806C105.823 27.1806 104.89 27.1524 103.928 27.0959C103.759 22.9181 103.646 18.7685 103.589 14.6472C103.533 10.5259 103.476 6.40454 103.419 2.2832C111.902 2.45257 120.327 2.70663 128.697 3.04537C137.066 3.32765 145.463 3.58171 153.889 3.80753C154.115 6.23517 154.285 8.60635 154.398 10.9211C154.511 13.1793 154.568 15.4941 154.568 17.8652Z" fill="#FF3478"/>
  <path d="M97.8112 15.5812C92.2694 15.8635 86.7559 16.174 81.2707 16.5127C75.8421 16.795 70.3569 17.162 64.8151 17.6136L64.6455 24.3038L86.5298 23.0335C86.8125 24.953 87.0104 26.8443 87.1235 28.7074C87.2932 30.5705 87.378 32.4618 87.378 34.3813C87.378 35.1717 87.3497 35.9903 87.2932 36.8371C87.2932 37.684 87.2932 38.5026 87.2932 39.293L66.9357 42.9345L68.208 53.4354C72.5057 53.1531 76.7751 52.7579 81.0163 52.2498C85.314 51.6852 89.6399 51.2054 93.9942 50.8102C94.39 53.633 94.7858 56.4841 95.1817 59.3633C95.5775 62.1862 96.143 64.9526 96.8781 67.6625C88.8482 67.606 80.8749 67.606 72.9581 67.6625C65.0413 67.7754 57.068 67.8318 49.0381 67.8318C49.2077 61.2264 49.4057 54.6492 49.6318 48.1002C49.858 41.5513 49.9711 34.9458 49.9711 28.284V26.6749C49.9711 22.8359 49.9146 19.0251 49.8015 15.2425C49.6884 11.4034 49.5753 7.53613 49.4622 3.64062C53.9295 3.69708 58.3686 3.72531 62.7794 3.72531C67.2467 3.66885 71.7423 3.64062 76.2662 3.64062C79.7157 3.64062 83.1368 3.72531 86.5298 3.89468C89.9792 4.00759 93.4287 4.14873 96.8781 4.3181L97.8112 15.5812Z" fill="#FF3478"/>
  <path d="M41.7328 65.038C35.0035 65.5461 28.3025 66.026 21.6298 66.4776C15.0136 66.9293 8.34091 67.3527 1.61163 67.7479C1.32889 56.9647 1.1027 46.2661 0.933051 35.6523C0.763405 24.982 0.452388 14.227 0 3.38731C3.78875 3.33086 7.52095 3.21794 11.1966 3.04857C14.8723 2.8792 18.5762 2.65338 22.3084 2.37109C21.6864 6.54889 21.0926 10.7549 20.5271 14.9892C20.0182 19.167 19.6223 23.373 19.3396 27.6072C19.1134 31.164 18.9155 34.7208 18.7458 38.2775C18.6327 41.7778 18.5196 45.3064 18.4065 48.8632C22.1387 48.9761 25.8144 49.0325 29.4335 49.0325C33.1092 49.0325 36.7848 49.089 40.4605 49.2019L41.7328 65.038Z" fill="#FF3478"/>
</svg>